name Walk8_EMG.mot
datacolumns 17
datarows 33
range 3.81800000 3.85000000
endheader
                time	            vasmed_r	            vaslat_r	            recfem_r	               gra_r	               sar_r	            tibant_r	           perlong_r	            addmag_r	           semimem_r	          bicfemlh_r	            gasmed_r	            gaslat_r	               sol_r	               tfl_r	              gmed_r	              gmax_r	
          3.81800000	          0.33906615	          0.80277391	          0.66593855	          0.30492810	          0.23602358	          0.15619791	          0.39469567	          0.74609347	          0.09594977	          0.22573083	          0.18369576	          0.17009359	          0.11123507	          0.35656741	          0.59828467	          0.24215904	
          3.81900000	          0.33813036	          0.79512118	          0.65983069	          0.30541325	          0.23919240	          0.15860918	          0.39889251	          0.75138191	          0.09537976	          0.22701544	          0.18334608	          0.17323610	          0.10977851	          0.35547944	          0.60102224	          0.24189357	
          3.82000000	          0.33696654	          0.78671203	          0.65355511	          0.30590355	          0.24286456	          0.16092868	          0.40317682	          0.75719031	          0.09488526	          0.22821368	          0.18286318	          0.17658863	          0.10821127	          0.35420212	          0.60402250	          0.24202696	
          3.82100000	          0.33557076	          0.77756734	          0.64713236	          0.30639339	          0.24705633	          0.16314890	          0.40750780	          0.76348418	          0.09446593	          0.22931166	          0.18224461	          0.18012531	          0.10654006	          0.35273345	          0.60725983	          0.24254334	
          3.82200000	          0.33393988	          0.76770976	          0.64058483	          0.30687527	          0.25178606	          0.16526244	          0.41184527	          0.77021669	          0.09411987	          0.23029721	          0.18148837	          0.18381973	          0.10477214	          0.35107140	          0.61070754	          0.24342348	
          3.82300000	          0.33207145	          0.75716335	          0.63393703	          0.30734007	          0.25707686	          0.16726190	          0.41615088	          0.77733009	          0.09384379	          0.23116026	          0.18059327	          0.18764454	          0.10291536	          0.34921371	          0.61433741	          0.24464704	
          3.82400000	          0.32996428	          0.74595315	          0.62721595	          0.30777764	          0.26295718	          0.16914004	          0.42038846	          0.78475805	          0.09363329	          0.23189307	          0.17955934	          0.19157197	          0.10097824	          0.34715797	          0.61811862	          0.24619428	
          3.82500000	          0.32761875	          0.73410549	          0.62044988	          0.30817883	          0.26945711	          0.17088987	          0.42452466	          0.79243036	          0.09348333	          0.23249100	          0.17838800	          0.19557520	          0.09896975	          0.34490279	          0.62201661	          0.24804604	
          3.82600000	          0.32503649	          0.72164956	          0.61366628	          0.30853830	          0.27660311	          0.17250497	          0.42853171	          0.80027823	          0.09338871	          0.23295347	          0.17708166	          0.19962953	          0.09689936	          0.34245004	          0.62599315	          0.25018307	
          3.82700000	          0.32222011	          0.70861979	          0.60689080	          0.30885519	          0.28441349	          0.17398027	          0.43239095	          0.80823557	          0.09334406	          0.23328331	          0.17564353	          0.20371233	          0.09477677	          0.33980661	          0.63000731	          0.25258621	
          3.82800000	          0.31917328	          0.69505667	          0.60014725	          0.30913145	          0.29289498	          0.17531275	          0.43609205	          0.81623626	          0.09334350	          0.23348502	          0.17407719	          0.20780195	          0.09261166	          0.33698450	          0.63401733	          0.25523661	
          3.82900000	          0.31590151	          0.68100511	          0.59345832	          0.30937080	          0.30204072	          0.17650131	          0.43962817	          0.82421241	          0.09338064	          0.23356325	          0.17238668	          0.21187677	          0.09041352	          0.33399954	          0.63798230	          0.25811437	
          3.83000000	          0.31241354	          0.66651169	          0.58684846	          0.30957874	          0.31183044	          0.17754592	          0.44299209	          0.83209624	          0.09344867	          0.23352180	          0.17057756	          0.21591457	          0.08819204	          0.33086956	          0.64186297	          0.26119713	
          3.83100000	          0.30872206	          0.65162280	          0.58034764	          0.30976265	          0.32223278	          0.17844700	          0.44617493	          0.83982329	          0.09354062	          0.23336305	          0.16865803	          0.21989233	          0.08595737	          0.32761334	          0.64562216	          0.26445992	
          3.83200000	          0.30484276	          0.63638353	          0.57399134	          0.30993164	          0.33320886	          0.17920586	          0.44916607	          0.84733411	          0.09364959	          0.23308832	          0.16663827	          0.22378656	          0.08372008	          0.32425011	          0.64922550	          0.26787575	
          3.83300000	          0.30079196	          0.62083725	          0.56781545	          0.31009612	          0.34471569	          0.17982596	          0.45195391	          0.85457571	          0.09376909	          0.23269963	          0.16452892	          0.22757403	          0.08149069	          0.32079878	          0.65264183	          0.27141588	
          3.83400000	          0.29658498	          0.60502591	          0.56185032	          0.31026710	          0.35670858	          0.18031320	          0.45452748	          0.86150593	          0.09389321	          0.23220234	          0.16234103	          0.23123271	          0.07927966	          0.31727778	          0.65584231	          0.27505052	
          3.83500000	          0.29223613	          0.58899094	          0.55611875	          0.31045546	          0.36914256	          0.18067486	          0.45687756	          0.86809949	          0.09401633	          0.23160598	          0.16008775	          0.23474291	          0.07709815	          0.31370551	          0.65879876	          0.27874990	
          3.83600000	          0.28775959	          0.57277364	          0.55063621	          0.31067132	          0.38197308	          0.18091841	          0.45899699	          0.87435095	          0.09413271	          0.23092224	          0.15778573	          0.23808808	          0.07495882	          0.31010099	          0.66148352	          0.28248494	
          3.83700000	          0.28316980	          0.55641471	          0.54541101	          0.31092393	          0.39515685	          0.18105087	          0.46088205	          0.88027308	          0.09423650	          0.23016264	          0.15545397	          0.24125387	          0.07287539	          0.30648395	          0.66387226	          0.28622705	
          3.83800000	          0.27848150	          0.53995352	          0.54044468	          0.31122195	          0.40865386	          0.18107866	          0.46253437	          0.88589204	          0.09432232	          0.22933787	          0.15311139	          0.24422685	          0.07086200	          0.30287362	          0.66594780	          0.28994825	
          3.83900000	          0.27370956	          0.52342802	          0.53573321	          0.31157343	          0.42242963	          0.18100837	          0.46396043	          0.89124253	          0.09438588	          0.22845803	          0.15077597	          0.24699470	          0.06893345	          0.29928715	          0.66770141	          0.29362269	
          3.84000000	          0.26886835	          0.50687516	          0.53126898	          0.31198577	          0.43645490	          0.18084795	          0.46516875	          0.89636504	          0.09442394	          0.22753222	          0.14846600	          0.24954779	          0.06710533	          0.29573917	          0.66913023	          0.29722889	
          3.84100000	          0.26397092	          0.49033224	          0.52704254	          0.31246593	          0.45070199	          0.18060679	          0.46616792	          0.90130322	          0.09443407	          0.22656808	          0.14620064	          0.25187971	          0.06539358	          0.29224232	          0.67023343	          0.30074919	
          3.84200000	          0.25902908	          0.47383780	          0.52304304	          0.31302022	          0.46514398	          0.18029450	          0.46696689	          0.90610061	          0.09441444	          0.22557144	          0.14399877	          0.25398671	          0.06381390	          0.28880762	          0.67101008	          0.30416695	
          3.84300000	          0.25405415	          0.45743036	          0.51925787	          0.31365303	          0.47976172	          0.17991939	          0.46757556	          0.91079702	          0.09436358	          0.22454632	          0.14187808	          0.25586727	          0.06238132	          0.28544444	          0.67145831	          0.30746436	
          3.84400000	          0.24905800	          0.44114689	          0.51567198	          0.31436567	          0.49455377	          0.17948790	          0.46800378	          0.91542556	          0.09428034	          0.22349527	          0.13985558	          0.25752177	          0.06111007	          0.28215997	          0.67157482	          0.31062225	
          3.84500000	          0.24405339	          0.42502441	          0.51226766	          0.31515579	          0.50953905	          0.17900470	          0.46826042	          0.92001067	          0.09416401	          0.22242003	          0.13794759	          0.25895198	          0.06001382	          0.27895879	          0.67135648	          0.31362107	
          3.84600000	          0.23905325	          0.40910360	          0.50902597	          0.31601779	          0.52474799	          0.17847295	          0.46835368	          0.92456807	          0.09401438	          0.22132238	          0.13616829	          0.26016040	          0.05910511	          0.27584296	          0.67080481	          0.31644240	
          3.84700000	          0.23406945	          0.39343029	          0.50592941	          0.31694358	          0.54020930	          0.17789449	          0.46829055	          0.92910823	          0.09383154	          0.22020427	          0.13452879	          0.26114984	          0.05839406	          0.27281255	          0.66992851	          0.31906980	
          3.84800000	          0.22911213	          0.37805373	          0.50296327	          0.31792271	          0.55594131	          0.17727019	          0.46807564	          0.93364165	          0.09361569	          0.21906777	          0.13303762	          0.26192338	          0.05788788	          0.26986696	          0.66874151	          0.32148839	
          3.84900000	          0.22418967	          0.36302361	          0.50011497	          0.31894215	          0.57194954	          0.17660049	          0.46771115	          0.93818137	          0.09336717	          0.21791552	          0.13170208	          0.26248511	          0.05759111	          0.26700591	          0.66726010	          0.32368419	
          3.85000000	          0.21930875	          0.34838738	          0.49737274	          0.31998710	          0.58822898	          0.17588605	          0.46719796	          0.94274035	          0.09308705	          0.21675145	          0.13052961	          0.26284171	          0.05750613	          0.26422876	          0.66550095	          0.32564402	
